<svg width="36" height="36" viewBox="0 0 36 36" fill="none" xmlns="http://www.w3.org/2000/svg">
<path d="M5.5266 13.8096C6.0546 13.8096 6.4824 13.3818 6.4824 12.8538V8.9502H10.3866C10.9146 8.9502 11.3424 8.5224 11.3424 7.9944C11.3424 7.4664 10.9146 7.0386 10.3866 7.0386H5.5266C4.9986 7.0386 4.5708 7.4664 4.5708 7.9944V12.8538C4.5708 13.3818 4.9986 13.8096 5.5266 13.8096Z" fill="#494949"/>
<path d="M32.2218 19.0662C31.6938 19.0662 31.266 19.494 31.266 20.022V27.0042L25.5324 32.7378V21.3036C25.5324 20.7756 25.1046 20.3478 24.5766 20.3478C24.0486 20.3478 23.6208 20.7756 23.6208 21.3036V34.089H18.204V27.2358C18.204 26.7078 17.7762 26.28 17.2482 26.28H11.7516C11.2236 26.28 10.7958 26.7078 10.7958 27.2358V34.089H5.37962V21.3036C5.37962 20.7756 4.95182 20.3478 4.42382 20.3478C3.89582 20.3478 3.46802 20.7756 3.46802 21.3036V35.0442C3.46802 35.5722 3.89582 36 4.42382 36H11.7522C12.2802 36 12.708 35.5722 12.708 35.0442V28.191H16.2936V35.0442C16.2936 35.5722 16.7214 36 17.2494 36H24.5778C24.6402 36 24.7032 35.9934 24.765 35.9814C24.795 35.9754 24.822 35.9652 24.8502 35.9562C24.882 35.9466 24.9132 35.94 24.9432 35.9268C24.978 35.913 25.0086 35.8938 25.041 35.8758C25.0632 35.8632 25.0866 35.8536 25.1076 35.8392C25.1604 35.8038 25.2102 35.7636 25.2546 35.7186L32.8968 28.0764C32.9418 28.032 32.9826 27.9822 33.0174 27.9294C33.0318 27.9072 33.042 27.8832 33.0546 27.861C33.072 27.8292 33.0912 27.7986 33.105 27.765C33.1176 27.7344 33.1248 27.7026 33.1338 27.6708C33.1428 27.6432 33.153 27.6162 33.159 27.5868C33.1716 27.525 33.1776 27.4626 33.1776 27.3996V20.022C33.1776 19.494 32.7498 19.0662 32.2218 19.0662Z" fill="#494949"/>
<path d="M34.8582 13.2654C34.8582 13.2654 34.8576 13.2648 34.857 13.2648L21.8724 0.280205C21.4986 -0.0929948 20.8938 -0.0929948 20.5206 0.280205L14.1282 6.67261C14.1282 6.67261 14.1276 6.67261 14.1276 6.67321L1.14123 19.6596C0.768028 20.0322 0.768028 20.6376 1.14123 21.0108C1.32843 21.198 1.57263 21.291 1.81683 21.291C2.06163 21.291 2.30583 21.198 2.49303 21.0108L8.88603 14.6172L14.8032 8.70061L27.114 21.0108C27.3012 21.198 27.5454 21.291 27.7896 21.291C28.0344 21.291 28.2786 21.198 28.4658 21.0108L34.8582 14.6178C34.9512 14.5248 35.0208 14.4168 35.0682 14.3016C35.115 14.187 35.1384 14.064 35.1384 13.9422C35.1378 13.6968 35.0442 13.4526 34.8582 13.2654ZM21.1962 2.30761L32.8308 13.9422L27.7896 18.9834L16.155 7.34941L21.1962 2.30761Z" fill="#494949"/>
</svg>
