<svg width="128" height="128" viewBox="0 0 128 128" fill="none" xmlns="http://www.w3.org/2000/svg">
<path d="M113.28 0H14.72C6.59037 0 0 6.59037 0 14.72V113.28C0 121.41 6.59037 128 14.72 128H113.28C121.41 128 128 121.41 128 113.28V14.72C128 6.59037 121.41 0 113.28 0Z" fill="#FFA945"/>
<path d="M92.2714 48.0561L85.3666 41.152C84.6634 40.4493 83.5246 40.4493 82.8214 41.152L54.8164 69.1576L45.2392 59.5809C44.5642 58.9059 43.369 58.9059 42.694 59.5809L35.728 66.5482C35.0248 67.2514 35.0248 68.3907 35.728 69.0933L53.4814 86.8474C53.8186 87.1846 54.2764 87.3748 54.754 87.3748C55.2316 87.3748 55.6894 87.1852 56.0266 86.8474L92.2714 50.6019C92.6086 50.2647 92.7988 49.8064 92.7988 49.3294C92.7988 48.8518 92.6092 48.3939 92.2714 48.0561Z" fill="white"/>
</svg>
