<svg width="128" height="128" viewBox="0 0 128 128" fill="none" xmlns="http://www.w3.org/2000/svg">
<path d="M113.28 0H14.72C6.59037 0 0 6.59037 0 14.72V113.28C0 121.41 6.59037 128 14.72 128H113.28C121.41 128 128 121.41 128 113.28V14.72C128 6.59037 121.41 0 113.28 0Z" fill="#FFA945"/>
<path d="M97.5214 51.3593C96.8962 48.8933 92.158 48.5249 89.3884 48.5249C87.8512 48.5249 86.4202 48.6557 85.561 48.8747L44.6302 59.2829L37.9756 53.3765C37.7524 53.1791 37.4482 53.1047 37.156 53.1773L31.0918 54.7193C30.8188 54.7889 30.5932 54.9827 30.484 55.2431C30.3742 55.5035 30.394 55.7999 30.5356 56.0441C30.6994 56.3261 30.9916 57.0605 31.3294 57.9101C32.9854 62.0747 36.067 69.8267 41.0482 69.8267H41.0494C41.1148 69.8267 41.182 69.8249 41.248 69.8225C41.284 69.8207 41.3194 69.8171 41.3554 69.8111L55.1542 67.5509L53.707 82.0031C53.677 82.2971 53.7946 82.5869 54.0196 82.7783C54.184 82.9181 54.391 82.9925 54.6028 82.9925C54.6802 82.9925 54.7582 82.9823 54.835 82.9619C56.35 82.5581 57.2734 82.3049 58.201 82.0505C59.1136 81.8003 60.0298 81.5489 61.5202 81.1517C61.6726 81.1115 61.8112 81.0311 61.9234 80.9195C69.0496 73.8215 73.7974 67.9457 77.7286 61.3493L88.2016 59.2535C89.6008 58.8971 92.068 57.6653 93.9406 56.3879C96.6892 54.5129 97.894 52.8197 97.5214 51.3593Z" fill="white"/>
<path d="M54.0052 54.0466C54.163 54.3496 54.4738 54.5314 54.8038 54.5314C54.877 54.5314 54.952 54.5224 55.0258 54.5038L74.113 49.6486C74.5204 49.5448 74.8018 49.1728 74.7904 48.7522C74.779 48.3316 74.4784 47.9752 74.0662 47.8936L59.6038 45.025C59.4676 44.998 59.3278 45.0022 59.1952 45.0382L51.613 47.0752C51.3496 47.146 51.1318 47.3326 51.0226 47.5822C50.9134 47.8318 50.9218 48.118 51.0478 48.3598L54.0052 54.0466Z" fill="white"/>
</svg>
