<svg width="128" height="128" viewBox="0 0 128 128" fill="none" xmlns="http://www.w3.org/2000/svg">
<path d="M113.28 0H14.72C6.59037 0 0 6.59037 0 14.72V113.28C0 121.41 6.59037 128 14.72 128H113.28C121.41 128 128 121.41 128 113.28V14.72C128 6.59037 121.41 0 113.28 0Z" fill="#FFA945"/>
<path d="M85.5544 43.5148C82.3936 43.7266 79.5856 43.528 77.1286 43.0798C68.4724 41.503 64.1518 36.889 64.012 36.7354C64.012 36.727 64.0114 36.7168 64.0114 36.7168L64.0024 36.7258L63.9928 36.7168C63.9928 36.7168 63.9928 36.727 63.9928 36.7354C63.8038 36.9424 56.0494 45.235 40.324 43.3186C40.324 61.3132 40.324 66.6202 40.324 66.6202C40.2328 68.1394 41.1634 71.9026 44.0014 76.207C45.0478 77.7946 46.354 79.4536 47.965 81.1024C51.6826 84.907 57.0172 88.651 64.5304 91.2838C86.9128 81.7966 87.6814 66.6208 87.6814 66.6208C87.6814 66.6208 87.6814 61.3138 87.6814 43.3192C86.953 43.408 86.2486 43.4674 85.5544 43.5148ZM71.6266 74.4448L64.0642 70.4692L56.5024 74.4448L57.9472 66.0244L51.829 60.0616L60.283 58.8322L64.0642 51.1726L67.8454 58.8322L76.2988 60.0616L70.1812 66.0244L71.6266 74.4448Z" fill="white"/>
</svg>
