<svg width="128" height="128" viewBox="0 0 128 128" fill="none" xmlns="http://www.w3.org/2000/svg">
<path d="M113.28 0H14.72C6.59037 0 0 6.59037 0 14.72V113.28C0 121.41 6.59037 128 14.72 128H113.28C121.41 128 128 121.41 128 113.28V14.72C128 6.59037 121.41 0 113.28 0Z" fill="#FFA945"/>
<path d="M63.9988 33.9274C52.6198 33.9274 43.363 43.1854 43.363 54.5644C43.363 65.404 61.7356 92.1616 62.5174 93.295C62.854 93.7822 63.4066 94.0732 63.9988 94.0732C64.591 94.0732 65.1448 93.7828 65.4814 93.295C66.2632 92.1616 84.637 65.4046 84.637 54.5644C84.637 43.1854 75.379 33.9274 63.9988 33.9274ZM63.9988 41.962C70.8274 41.962 76.3822 47.5174 76.3822 54.3454C76.3822 61.1734 70.8274 66.7282 63.9988 66.7282C57.1714 66.7282 51.6166 61.1734 51.6166 54.3454C51.6166 47.5174 57.1714 41.962 63.9988 41.962Z" fill="white"/>
</svg>
