<svg width="36" height="33" viewBox="0 0 36 33" fill="none" xmlns="http://www.w3.org/2000/svg">
<path d="M25.116 30.153C25.4046 30.153 25.6392 29.9184 25.6392 29.6298V18.4644C25.6392 17.3784 24.7554 16.4958 23.67 16.4958H13.011C11.9256 16.4958 11.0424 17.379 11.0424 18.4644V29.6292C11.0424 29.9178 11.2764 30.1524 11.5656 30.1524C11.8548 30.1524 12.0888 29.9178 12.0888 29.6292V18.4644C12.0888 17.9556 12.5022 17.5416 13.0116 17.5416H23.67C24.1794 17.5416 24.5928 17.9556 24.5928 18.4644V29.6292C24.5928 29.9184 24.8274 30.153 25.116 30.153Z" fill="#FFA945"/>
<path d="M28.1724 12.1626C28.9866 13.128 30.2046 13.7442 31.5636 13.7442C34.0092 13.7442 36 11.754 36 9.3072C36 9.2892 35.9952 9.2724 35.9946 9.255C36.0018 9.135 35.991 9.0114 35.9544 8.889L33.9102 2.1852C33.3552 0.3786 32.274 0 31.4646 0H4.665C2.9376 0 2.4018 1.6302 2.2242 2.1696L0.051 8.8716C0.0084 9.0036 -0.0054 9.138 0.0036 9.2682C0.0036 9.282 0 9.2946 0 9.3072C0 11.3514 1.3926 13.0734 3.2778 13.5846C3.258 13.5834 3.2394 13.5786 3.219 13.5786C2.6412 13.5786 2.1732 14.0472 2.1732 14.625V30.345C2.1732 31.719 3.291 32.8368 4.665 32.8368H31.464C32.838 32.8368 33.9558 31.719 33.9558 30.345V14.625C33.9558 14.0472 33.4878 13.5786 32.91 13.5786C32.3322 13.5786 31.8642 14.0472 31.8642 14.625V30.345C31.8642 30.5658 31.6842 30.7452 31.464 30.7452H4.665C4.4442 30.7452 4.2648 30.5658 4.2648 30.345V14.625C4.2648 14.196 4.0068 13.83 3.6384 13.6674C3.8982 13.7154 4.164 13.7436 4.437 13.7436C5.796 13.7436 7.0128 13.128 7.8276 12.162C8.6418 13.1274 9.8592 13.7436 11.2188 13.7436C12.5784 13.7436 13.7952 13.128 14.61 12.162C15.4242 13.1274 16.6416 13.7436 18.0006 13.7436C19.3596 13.7436 20.5764 13.128 21.3906 12.162C22.2048 13.1274 23.4222 13.7436 24.7812 13.7436C26.1402 13.7436 27.3582 13.1286 28.1724 12.1626ZM24.7818 11.652C23.4888 11.652 22.437 10.6002 22.437 9.3078C22.437 8.73 21.969 8.2614 21.3912 8.2614C20.8134 8.2614 20.3454 8.73 20.3454 9.3078C20.3454 10.6002 19.2936 11.652 18.0012 11.652C16.7082 11.652 15.6564 10.6002 15.6564 9.3078C15.6564 8.73 15.1878 8.2614 14.6106 8.2614C14.0328 8.2614 13.5642 8.73 13.5642 9.3078C13.5642 10.6002 12.5124 11.652 11.2194 11.652C9.9264 11.652 8.874 10.6002 8.874 9.3078C8.874 8.73 8.406 8.2614 7.8282 8.2614C7.2504 8.2614 6.7818 8.73 6.7818 9.3078C6.7818 10.6002 5.7306 11.652 4.4376 11.652C3.1602 11.652 2.1192 10.6242 2.0952 9.3528L4.2138 2.8188C4.4514 2.0922 4.59 2.0922 4.665 2.0922H31.464C31.6158 2.0922 31.7658 2.3298 31.9098 2.7978L33.906 9.3438C33.8856 10.62 32.8434 11.652 31.5636 11.652C30.27 11.652 29.2182 10.6002 29.2182 9.3078C29.2182 8.73 28.7502 8.2614 28.1724 8.2614C27.5946 8.2614 27.1266 8.73 27.1266 9.3078C27.1266 10.6002 26.0748 11.652 24.7818 11.652Z" fill="#FFA945"/>
</svg>
