<svg width="36" height="36" viewBox="0 0 36 36" fill="none" xmlns="http://www.w3.org/2000/svg">
<path d="M18 0C8.0754 0 0 8.0748 0 18C0 27.9252 8.0754 36 18 36C27.9258 36 36 27.9252 36 18C36 8.0748 27.9258 0 18 0ZM28.9158 6.1872L23.3448 11.7576C21.906 10.524 20.0388 9.7764 18 9.7764C15.8814 9.7764 13.9476 10.5828 12.4872 11.9034L6.9234 6.3402C9.8124 3.5952 13.7112 1.9056 18 1.9056C22.2096 1.9056 26.0448 3.5322 28.9158 6.1872ZM18 24.318C14.5158 24.318 11.6826 21.4836 11.6826 18C11.6826 14.5164 14.5158 11.682 18 11.682C21.4842 11.682 24.3186 14.5158 24.3186 18C24.3186 21.4842 21.4842 24.318 18 24.318ZM6.0366 7.248L11.6148 12.8262C10.4664 14.2404 9.7776 16.041 9.7776 18C9.7776 20.0496 10.5336 21.9252 11.778 23.3664L6.2082 28.9368C3.54 26.0628 1.9056 22.2198 1.9056 18C1.9056 13.8708 3.4698 10.101 6.0366 7.248ZM7.1064 29.8344L12.6786 24.2622C14.1144 25.4844 15.9726 26.2242 18 26.2242C19.9488 26.2242 21.7392 25.542 23.1504 24.4056L28.7298 29.9844C25.8798 32.5386 22.119 34.0956 18 34.0956C13.8012 34.0944 9.975 32.4768 7.1064 29.8344ZM29.64 29.0976L24.0774 23.535C25.41 22.0728 26.2242 20.13 26.2242 18C26.2242 15.9612 25.4766 14.094 24.2424 12.6558L29.8134 7.0848C32.4678 9.9558 34.0944 13.7916 34.0944 18C34.0944 22.2996 32.3964 26.2074 29.64 29.0976Z" fill="#FFA945"/>
</svg>
