<svg width="29" height="29" viewBox="0 0 29 29" fill="none" xmlns="http://www.w3.org/2000/svg">
<path d="M3.24 27V11.58C3.24 9.66 4.8 8.04 6.78 8.04H17.04V1.2C17.04 0.54 16.5 0 15.84 0H1.2C0.54 0 0 0.54 0 1.2V27.06C0 27.72 0.54 28.26 1.2 28.26H3.48C3.3 27.84 3.24 27.42 3.24 27Z" fill="#FFA945"/>
<path d="M27 14.46H23.64V28.2H27C27.66 28.2 28.2 27.66 28.2 27V15.6C28.2 14.94 27.66 14.46 27 14.46Z" fill="#FFA945"/>
<path d="M14.94 23.28H12V28.2H14.94V23.28Z" fill="#FFA945"/>
<path d="M6.78 10.44C6.12 10.44 5.58 10.98 5.58 11.64V27.06C5.58 27.72 6.12 28.26 6.78 28.26H9.66V22.08C9.66 21.42 10.2 20.88 10.86 20.88H16.14C16.8 20.88 17.34 21.42 17.34 22.08V28.2H21.3V10.44H6.78Z" fill="#FFA945"/>
</svg>
