<svg width="18" height="18" viewBox="0 0 18 18" fill="none" xmlns="http://www.w3.org/2000/svg">
<path d="M14.7 15H3.3C3.12 15 3 14.88 3 14.7V3.3C3 3.12 3.12 3 3.3 3H14.7C14.88 3 15 3.12 15 3.3V14.7C15 14.88 14.88 15 14.7 15ZM3.6 14.4H14.4V3.6H3.6V14.4Z" fill="#FFA945"/>
<path d="M3.3 2.4C3.12 2.4 3 2.28 3 2.1V0.3C3 0.12 3.12 0 3.3 0C3.48 0 3.6 0.12 3.6 0.3V2.1C3.6 2.28 3.48 2.4 3.3 2.4Z" fill="#FFA945"/>
<path d="M3.3 18C3.12 18 3 17.88 3 17.7V15.9C3 15.72 3.12 15.6 3.3 15.6C3.48 15.6 3.6 15.72 3.6 15.9V17.7C3.6 17.88 3.48 18 3.3 18Z" fill="#FFA945"/>
<path d="M2.1 15H0.3C0.12 15 0 14.88 0 14.7C0 14.52 0.12 14.4 0.3 14.4H2.1C2.28 14.4 2.4 14.52 2.4 14.7C2.4 14.88 2.28 15 2.1 15Z" fill="#FFA945"/>
<path d="M2.1 3.6H0.3C0.12 3.6 0 3.48 0 3.3C0 3.12 0.12 3 0.3 3H2.1C2.28 3 2.4 3.12 2.4 3.3C2.4 3.48 2.28 3.6 2.1 3.6Z" fill="#FFA945"/>
<path d="M17.7 3.6H15.9C15.72 3.6 15.6 3.48 15.6 3.3C15.6 3.12 15.72 3 15.9 3H17.7C17.88 3 18 3.12 18 3.3C18 3.48 17.88 3.6 17.7 3.6Z" fill="#FFA945"/>
<path d="M14.7 2.4C14.52 2.4 14.4 2.28 14.4 2.1V0.3C14.4 0.12 14.52 0 14.7 0C14.88 0 15 0.12 15 0.3V2.1C15 2.28 14.88 2.4 14.7 2.4Z" fill="#FFA945"/>
<path d="M14.7 18C14.52 18 14.4 17.88 14.4 17.7V15.9C14.4 15.72 14.52 15.6 14.7 15.6C14.88 15.6 15 15.72 15 15.9V17.7C15 17.88 14.88 18 14.7 18Z" fill="#FFA945"/>
<path d="M17.7 15H15.9C15.72 15 15.6 14.88 15.6 14.7C15.6 14.52 15.72 14.4 15.9 14.4H17.7C17.88 14.4 18 14.52 18 14.7C18 14.88 17.88 15 17.7 15Z" fill="#FFA945"/>
</svg>
